<?xml version="1.0" encoding="utf-8"?>
<svg width="31px" height="22px" viewBox="0 0 31 22" version="1.1" xmlns:xlink="http://www.w3.org/1999/xlink" xmlns="http://www.w3.org/2000/svg">
  <desc>Created with Lunacy</desc>
  <g id="Mobile-Drop-Down">
    <g id="Group">
      <path d="M1.999 0L29.001 0Q29.0992 0 29.1969 0.00962573Q29.2947 0.0192515 29.391 0.0384102Q29.4873 0.057569 29.5813 0.0860763Q29.6753 0.114584 29.766 0.152165Q29.8567 0.189746 29.9433 0.236039Q30.0299 0.282333 30.1116 0.336892Q30.1932 0.391452 30.2691 0.453752Q30.3451 0.516052 30.4145 0.585494Q30.4839 0.654935 30.5462 0.730848Q30.6085 0.806761 30.6631 0.888415Q30.7177 0.970069 30.764 1.05668Q30.8103 1.14329 30.8478 1.23402Q30.8854 1.32474 30.9139 1.41872Q30.9424 1.5127 30.9616 1.60901Q30.9807 1.70533 30.9904 1.80306Q31 1.9008 31 1.999L31 2.001Q31 2.0992 30.9904 2.19694Q30.9807 2.29467 30.9616 2.39099Q30.9424 2.4873 30.9139 2.58128Q30.8854 2.67525 30.8478 2.76598Q30.8103 2.85671 30.764 2.94332Q30.7177 3.02993 30.6631 3.11158Q30.6085 3.19324 30.5462 3.26915Q30.4839 3.34507 30.4145 3.41451Q30.3451 3.48395 30.2692 3.54625Q30.1932 3.60855 30.1116 3.66311Q30.0299 3.71767 29.9433 3.76396Q29.8567 3.81025 29.766 3.84783Q29.6753 3.88542 29.5813 3.91392Q29.4873 3.94243 29.391 3.96159Q29.2947 3.98075 29.1969 3.99037Q29.0992 4 29.001 4L1.999 4Q1.9008 4 1.80306 3.99037Q1.70533 3.98075 1.60901 3.96159Q1.5127 3.94243 1.41872 3.91392Q1.32474 3.88542 1.23402 3.84783Q1.14329 3.81025 1.05668 3.76396Q0.970069 3.71767 0.888415 3.66311Q0.806761 3.60855 0.730848 3.54625Q0.654935 3.48395 0.585494 3.41451Q0.516052 3.34507 0.453752 3.26915Q0.391452 3.19324 0.336892 3.11158Q0.282333 3.02993 0.236039 2.94332Q0.189746 2.85671 0.152165 2.76598Q0.114584 2.67525 0.0860763 2.58128Q0.057569 2.4873 0.0384102 2.39099Q0.0192515 2.29467 0.00962573 2.19694Q0 2.0992 0 2.001L0 1.999Q0 1.9008 0.00962573 1.80306Q0.0192515 1.70533 0.0384102 1.60901Q0.057569 1.5127 0.0860763 1.41872Q0.114584 1.32474 0.152165 1.23402Q0.189746 1.14329 0.236039 1.05668Q0.282333 0.970069 0.336892 0.888415Q0.391452 0.806761 0.453752 0.730848Q0.516052 0.654935 0.585494 0.585494Q0.654935 0.516052 0.730848 0.453752Q0.806761 0.391452 0.888415 0.336892Q0.970069 0.282333 1.05668 0.236039Q1.14329 0.189746 1.23402 0.152165Q1.32474 0.114584 1.41872 0.0860763Q1.5127 0.057569 1.60901 0.0384102Q1.70533 0.0192515 1.80306 0.00962573Q1.9008 0 1.999 0L1.999 0Z" id="Rectangle" fill="#FFFFFF" fill-rule="evenodd" stroke="none" />
      <path d="M1.999 0L29.001 0Q29.0992 0 29.1969 0.00962573Q29.2947 0.0192515 29.391 0.0384102Q29.4873 0.057569 29.5813 0.0860763Q29.6753 0.114584 29.766 0.152165Q29.8567 0.189746 29.9433 0.236039Q30.0299 0.282333 30.1116 0.336892Q30.1932 0.391452 30.2691 0.453752Q30.3451 0.516052 30.4145 0.585494Q30.4839 0.654935 30.5462 0.730848Q30.6085 0.806761 30.6631 0.888415Q30.7177 0.970069 30.764 1.05668Q30.8103 1.14329 30.8478 1.23402Q30.8854 1.32474 30.9139 1.41872Q30.9424 1.5127 30.9616 1.60901Q30.9807 1.70533 30.9904 1.80306Q31 1.9008 31 1.999L31 2.001Q31 2.0992 30.9904 2.19694Q30.9807 2.29467 30.9616 2.39099Q30.9424 2.4873 30.9139 2.58128Q30.8854 2.67525 30.8478 2.76598Q30.8103 2.85671 30.764 2.94332Q30.7177 3.02993 30.6631 3.11158Q30.6085 3.19324 30.5462 3.26915Q30.4839 3.34507 30.4145 3.41451Q30.3451 3.48395 30.2692 3.54625Q30.1932 3.60855 30.1116 3.66311Q30.0299 3.71767 29.9433 3.76396Q29.8567 3.81025 29.766 3.84783Q29.6753 3.88542 29.5813 3.91392Q29.4873 3.94243 29.391 3.96159Q29.2947 3.98075 29.1969 3.99037Q29.0992 4 29.001 4L1.999 4Q1.9008 4 1.80306 3.99037Q1.70533 3.98075 1.60901 3.96159Q1.5127 3.94243 1.41872 3.91392Q1.32474 3.88542 1.23402 3.84783Q1.14329 3.81025 1.05668 3.76396Q0.970069 3.71767 0.888415 3.66311Q0.806761 3.60855 0.730848 3.54625Q0.654935 3.48395 0.585494 3.41451Q0.516052 3.34507 0.453752 3.26915Q0.391452 3.19324 0.336892 3.11158Q0.282333 3.02993 0.236039 2.94332Q0.189746 2.85671 0.152165 2.76598Q0.114584 2.67525 0.0860763 2.58128Q0.057569 2.4873 0.0384102 2.39099Q0.0192515 2.29467 0.00962573 2.19694Q0 2.0992 0 2.001L0 1.999Q0 1.9008 0.00962573 1.80306Q0.0192515 1.70533 0.0384102 1.60901Q0.057569 1.5127 0.0860763 1.41872Q0.114584 1.32474 0.152165 1.23402Q0.189746 1.14329 0.236039 1.05668Q0.282333 0.970069 0.336892 0.888415Q0.391452 0.806761 0.453752 0.730848Q0.516052 0.654935 0.585494 0.585494Q0.654935 0.516052 0.730848 0.453752Q0.806761 0.391452 0.888415 0.336892Q0.970069 0.282333 1.05668 0.236039Q1.14329 0.189746 1.23402 0.152165Q1.32474 0.114584 1.41872 0.0860763Q1.5127 0.057569 1.60901 0.0384102Q1.70533 0.0192515 1.80306 0.00962573Q1.9008 0 1.999 0L1.999 0Z" transform="translate(0 9)" id="Rectangle-Copy" fill="#FFFFFF" fill-rule="evenodd" stroke="none" />
      <path d="M1.999 0L29.001 0Q29.0992 0 29.1969 0.00962573Q29.2947 0.0192515 29.391 0.0384102Q29.4873 0.057569 29.5813 0.0860763Q29.6753 0.114584 29.766 0.152165Q29.8567 0.189746 29.9433 0.236039Q30.0299 0.282333 30.1116 0.336892Q30.1932 0.391452 30.2691 0.453752Q30.3451 0.516052 30.4145 0.585494Q30.4839 0.654935 30.5462 0.730848Q30.6085 0.806761 30.6631 0.888415Q30.7177 0.970069 30.764 1.05668Q30.8103 1.14329 30.8478 1.23402Q30.8854 1.32474 30.9139 1.41872Q30.9424 1.5127 30.9616 1.60901Q30.9807 1.70533 30.9904 1.80306Q31 1.9008 31 1.999L31 2.001Q31 2.0992 30.9904 2.19694Q30.9807 2.29467 30.9616 2.39099Q30.9424 2.4873 30.9139 2.58128Q30.8854 2.67525 30.8478 2.76598Q30.8103 2.85671 30.764 2.94332Q30.7177 3.02993 30.6631 3.11158Q30.6085 3.19324 30.5462 3.26915Q30.4839 3.34507 30.4145 3.41451Q30.3451 3.48395 30.2692 3.54625Q30.1932 3.60855 30.1116 3.66311Q30.0299 3.71767 29.9433 3.76396Q29.8567 3.81025 29.766 3.84783Q29.6753 3.88542 29.5813 3.91392Q29.4873 3.94243 29.391 3.96159Q29.2947 3.98075 29.1969 3.99037Q29.0992 4 29.001 4L1.999 4Q1.9008 4 1.80306 3.99037Q1.70533 3.98075 1.60901 3.96159Q1.5127 3.94243 1.41872 3.91392Q1.32474 3.88542 1.23402 3.84783Q1.14329 3.81025 1.05668 3.76396Q0.970069 3.71767 0.888415 3.66311Q0.806761 3.60855 0.730848 3.54625Q0.654935 3.48395 0.585494 3.41451Q0.516052 3.34507 0.453752 3.26915Q0.391452 3.19324 0.336892 3.11158Q0.282333 3.02993 0.236039 2.94332Q0.189746 2.85671 0.152165 2.76598Q0.114584 2.67525 0.0860763 2.58128Q0.057569 2.4873 0.0384102 2.39099Q0.0192515 2.29467 0.00962573 2.19694Q0 2.0992 0 2.001L0 1.999Q0 1.9008 0.00962573 1.80306Q0.0192515 1.70533 0.0384102 1.60901Q0.057569 1.5127 0.0860763 1.41872Q0.114584 1.32474 0.152165 1.23402Q0.189746 1.14329 0.236039 1.05668Q0.282333 0.970069 0.336892 0.888415Q0.391452 0.806761 0.453752 0.730848Q0.516052 0.654935 0.585494 0.585494Q0.654935 0.516052 0.730848 0.453752Q0.806761 0.391452 0.888415 0.336892Q0.970069 0.282333 1.05668 0.236039Q1.14329 0.189746 1.23402 0.152165Q1.32474 0.114584 1.41872 0.0860763Q1.5127 0.057569 1.60901 0.0384102Q1.70533 0.0192515 1.80306 0.00962573Q1.9008 0 1.999 0L1.999 0Z" transform="translate(0 18)" id="Rectangle-Copy-2" fill="#FFFFFF" fill-rule="evenodd" stroke="none" />
    </g>
  </g>
</svg>